<svg width="172" height="38" viewBox="0 0 172 38" fill="none" xmlns="http://www.w3.org/2000/svg">
<path d="M41.77 30V8.64H47.77V30H41.77ZM46.66 30V24.9H56.65V30H46.66ZM66.018 30.36C64.398 30.36 62.948 30.03 61.668 29.37C60.408 28.69 59.408 27.76 58.668 26.58C57.948 25.4 57.588 24.07 57.588 22.59C57.588 21.11 57.948 19.79 58.668 18.63C59.388 17.47 60.378 16.56 61.638 15.9C62.918 15.22 64.368 14.88 65.988 14.88C67.608 14.88 69.048 15.22 70.308 15.9C71.568 16.56 72.558 17.47 73.278 18.63C74.018 19.79 74.388 21.11 74.388 22.59C74.388 24.07 74.028 25.4 73.308 26.58C72.588 27.76 71.598 28.69 70.338 29.37C69.078 30.03 67.638 30.36 66.018 30.36ZM65.988 25.2C66.488 25.2 66.918 25.1 67.278 24.9C67.658 24.68 67.948 24.38 68.148 24C68.348 23.6 68.448 23.14 68.448 22.62C68.448 22.1 68.338 21.65 68.118 21.27C67.918 20.87 67.638 20.57 67.278 20.37C66.918 20.15 66.488 20.04 65.988 20.04C65.508 20.04 65.078 20.15 64.698 20.37C64.338 20.59 64.048 20.9 63.828 21.3C63.628 21.68 63.528 22.13 63.528 22.65C63.528 23.15 63.628 23.6 63.828 24C64.048 24.38 64.338 24.68 64.698 24.9C65.078 25.1 65.508 25.2 65.988 25.2ZM83.6547 30.36C82.0347 30.36 80.5847 30.03 79.3047 29.37C78.0447 28.69 77.0447 27.76 76.3047 26.58C75.5847 25.4 75.2247 24.07 75.2247 22.59C75.2247 21.11 75.5847 19.79 76.3047 18.63C77.0247 17.47 78.0147 16.56 79.2747 15.9C80.5547 15.22 82.0047 14.88 83.6247 14.88C85.2447 14.88 86.6847 15.22 87.9447 15.9C89.2047 16.56 90.1947 17.47 90.9147 18.63C91.6547 19.79 92.0247 21.11 92.0247 22.59C92.0247 24.07 91.6647 25.4 90.9447 26.58C90.2247 27.76 89.2347 28.69 87.9747 29.37C86.7147 30.03 85.2747 30.36 83.6547 30.36ZM83.6247 25.2C84.1247 25.2 84.5547 25.1 84.9147 24.9C85.2947 24.68 85.5847 24.38 85.7847 24C85.9847 23.6 86.0847 23.14 86.0847 22.62C86.0847 22.1 85.9747 21.65 85.7547 21.27C85.5547 20.87 85.2747 20.57 84.9147 20.37C84.5547 20.15 84.1247 20.04 83.6247 20.04C83.1447 20.04 82.7147 20.15 82.3347 20.37C81.9747 20.59 81.6847 20.9 81.4647 21.3C81.2647 21.68 81.1647 22.13 81.1647 22.65C81.1647 23.15 81.2647 23.6 81.4647 24C81.6847 24.38 81.9747 24.68 82.3347 24.9C82.7147 25.1 83.1447 25.2 83.6247 25.2ZM93.8514 30V15.24H99.7314V30H93.8514ZM102.941 30V21.54C102.941 21.04 102.791 20.65 102.491 20.37C102.191 20.07 101.811 19.92 101.351 19.92C101.031 19.92 100.741 19.99 100.481 20.13C100.241 20.25 100.051 20.43 99.9114 20.67C99.7914 20.91 99.7314 21.2 99.7314 21.54L97.4514 20.7C97.4514 19.5 97.7114 18.47 98.2314 17.61C98.7714 16.75 99.4914 16.09 100.391 15.63C101.291 15.17 102.311 14.94 103.451 14.94C104.451 14.94 105.351 15.18 106.151 15.66C106.971 16.14 107.621 16.81 108.101 17.67C108.581 18.51 108.821 19.51 108.821 20.67V30H102.941ZM112.031 30V21.54C112.031 21.04 111.881 20.65 111.581 20.37C111.281 20.07 110.901 19.92 110.441 19.92C110.121 19.92 109.831 19.99 109.571 20.13C109.331 20.25 109.141 20.43 109.001 20.67C108.881 20.91 108.821 21.2 108.821 21.54L105.371 21.57C105.371 20.19 105.641 19.01 106.181 18.03C106.741 17.03 107.511 16.27 108.491 15.75C109.471 15.21 110.591 14.94 111.851 14.94C113.031 14.94 114.071 15.19 114.971 15.69C115.891 16.19 116.611 16.91 117.131 17.85C117.651 18.79 117.911 19.92 117.911 21.24V30H112.031ZM126.544 30.3C125.164 30.3 123.944 29.97 122.884 29.31C121.824 28.65 120.994 27.75 120.394 26.61C119.794 25.45 119.494 24.12 119.494 22.62C119.494 21.12 119.794 19.79 120.394 18.63C120.994 17.47 121.824 16.57 122.884 15.93C123.944 15.27 125.164 14.94 126.544 14.94C127.404 14.94 128.194 15.09 128.914 15.39C129.654 15.67 130.264 16.07 130.744 16.59C131.244 17.11 131.564 17.71 131.704 18.39V26.85C131.564 27.53 131.244 28.13 130.744 28.65C130.264 29.17 129.654 29.58 128.914 29.88C128.194 30.16 127.404 30.3 126.544 30.3ZM127.864 25.14C128.604 25.14 129.194 24.91 129.634 24.45C130.094 23.97 130.324 23.36 130.324 22.62C130.324 22.12 130.224 21.69 130.024 21.33C129.824 20.95 129.534 20.65 129.154 20.43C128.794 20.21 128.374 20.1 127.894 20.1C127.414 20.1 126.984 20.21 126.604 20.43C126.244 20.65 125.954 20.95 125.734 21.33C125.514 21.71 125.404 22.14 125.404 22.62C125.404 23.1 125.504 23.53 125.704 23.91C125.924 24.29 126.224 24.59 126.604 24.81C126.984 25.03 127.404 25.14 127.864 25.14ZM130.144 30V26.04L130.954 22.44L130.144 18.87V15.24H135.874V30H130.144ZM145.035 36.78C143.375 36.78 141.905 36.5 140.625 35.94C139.345 35.4 138.355 34.63 137.655 33.63L141.135 30.18C141.595 30.68 142.105 31.07 142.665 31.35C143.225 31.65 143.905 31.8 144.705 31.8C145.665 31.8 146.415 31.57 146.955 31.11C147.515 30.65 147.795 29.98 147.795 29.1V25.2L148.755 22.02L147.945 18.87V15.24H153.675V28.86C153.675 30.48 153.295 31.88 152.535 33.06C151.775 34.24 150.745 35.15 149.445 35.79C148.145 36.45 146.675 36.78 145.035 36.78ZM144.765 29.4C143.385 29.4 142.165 29.08 141.105 28.44C140.045 27.8 139.215 26.93 138.615 25.83C138.015 24.73 137.715 23.51 137.715 22.17C137.715 20.81 138.015 19.59 138.615 18.51C139.215 17.41 140.045 16.54 141.105 15.9C142.165 15.26 143.385 14.94 144.765 14.94C145.625 14.94 146.415 15.09 147.135 15.39C147.875 15.67 148.485 16.07 148.965 16.59C149.465 17.11 149.785 17.71 149.925 18.39V25.95C149.785 26.63 149.465 27.23 148.965 27.75C148.485 28.27 147.875 28.68 147.135 28.98C146.415 29.26 145.625 29.4 144.765 29.4ZM145.845 24.39C146.325 24.39 146.735 24.28 147.075 24.06C147.415 23.84 147.675 23.56 147.855 23.22C148.035 22.88 148.125 22.52 148.125 22.14C148.125 21.76 148.035 21.4 147.855 21.06C147.675 20.72 147.415 20.44 147.075 20.22C146.755 20 146.355 19.89 145.875 19.89C145.415 19.89 145.015 20 144.675 20.22C144.335 20.44 144.075 20.73 143.895 21.09C143.715 21.43 143.625 21.78 143.625 22.14C143.625 22.48 143.715 22.83 143.895 23.19C144.075 23.53 144.325 23.82 144.645 24.06C144.985 24.28 145.385 24.39 145.845 24.39ZM164.139 30.36C162.419 30.36 160.909 30.04 159.609 29.4C158.309 28.74 157.289 27.83 156.549 26.67C155.829 25.49 155.469 24.14 155.469 22.62C155.469 21.12 155.819 19.79 156.519 18.63C157.239 17.47 158.219 16.56 159.459 15.9C160.699 15.22 162.099 14.88 163.659 14.88C165.199 14.88 166.559 15.2 167.739 15.84C168.919 16.46 169.839 17.33 170.499 18.45C171.179 19.57 171.519 20.85 171.519 22.29C171.519 22.59 171.499 22.91 171.459 23.25C171.439 23.57 171.379 23.95 171.279 24.39L157.959 24.48V20.88L169.089 20.79L166.359 22.38C166.359 21.58 166.259 20.93 166.059 20.43C165.879 19.91 165.599 19.52 165.219 19.26C164.839 19 164.359 18.87 163.779 18.87C163.179 18.87 162.659 19.02 162.219 19.32C161.779 19.62 161.439 20.05 161.199 20.61C160.979 21.17 160.869 21.85 160.869 22.65C160.869 23.47 160.989 24.16 161.229 24.72C161.489 25.26 161.859 25.67 162.339 25.95C162.819 26.23 163.419 26.37 164.139 26.37C164.839 26.37 165.449 26.26 165.969 26.04C166.509 25.8 166.999 25.43 167.439 24.93L170.379 27.84C169.639 28.68 168.749 29.31 167.709 29.73C166.669 30.15 165.479 30.36 164.139 30.36Z" fill="black"/>
<path fill-rule="evenodd" clip-rule="evenodd" d="M0 17.7778C0 11.2829 -2.05305e-07 8.03542 2.0177 6.0177C4.03542 4 7.28286 4 13.7778 4H17.2222C23.7171 4 26.9647 4 28.9822 6.0177C31 8.03542 31 11.2829 31 17.7778V21.2222C31 27.7171 31 30.9647 28.9822 32.9822C26.9647 35 23.7171 35 17.2222 35H13.7778C7.28286 35 4.03542 35 2.0177 32.9822C-2.05305e-07 30.9647 0 27.7171 0 21.2222V17.7778ZM25.8333 11.75C25.8333 13.1767 24.6767 14.3333 23.25 14.3333C21.8233 14.3333 20.6667 13.1767 20.6667 11.75C20.6667 10.3233 21.8233 9.16667 23.25 9.16667C24.6767 9.16667 25.8333 10.3233 25.8333 11.75ZM18.9444 21.2222C18.9444 23.1246 17.4024 24.6667 15.5 24.6667C13.5976 24.6667 12.0556 23.1246 12.0556 21.2222C12.0556 19.3199 13.5976 17.7778 15.5 17.7778C17.4024 17.7778 18.9444 19.3199 18.9444 21.2222ZM22.3889 21.2222C22.3889 25.0268 19.3046 28.1111 15.5 28.1111C11.6954 28.1111 8.61111 25.0268 8.61111 21.2222C8.61111 17.4177 11.6954 14.3333 15.5 14.3333C19.3046 14.3333 22.3889 17.4177 22.3889 21.2222Z" fill="#007AFF"/>
</svg>
